<svg width="140" height="55" xmlns="http://www.w3.org/2000/svg"><defs><linearGradient x1="10.54%" y1="54.568%" x2="83.966%" y2="43.307%" id="a"><stop stop-color="#5C6AFF" offset="0%"/><stop stop-color="#545EC4" offset="100%"/></linearGradient><linearGradient x1="87.268%" y1="42.916%" x2="13.859%" y2="54.075%" id="b"><stop stop-color="#5C6AFF" offset="0%"/><stop stop-color="#545EC4" offset="100%"/></linearGradient><linearGradient x1="95.402%" y1="85.218%" x2="2.087%" y2="7.683%" id="c"><stop stop-color="#4550BF" offset="0%"/><stop stop-color="#505BC3" offset="100%"/></linearGradient><linearGradient x1="8.342%" y1="11.103%" x2="101.675%" y2="88.461%" id="d"><stop stop-color="#4550BF" offset="0%"/><stop stop-color="#505BC3" offset="100%"/></linearGradient></defs><g fill="none"><path d="M9.742 29.746l21.016-12.787-8.882-6.243-13.354 7.732-4.11 2.377C2.923 21.689.86 26.474.86 26.474v3.272h8.882z" fill="url(#a)"/><path d="M44.447 24.382l-21.016 12.78 8.881 6.243 13.355-7.73 4.116-2.374c1.493-.865 3.553-5.65 3.553-5.65V24.38l-8.889.002z" fill="url(#b)"/><path d="M19.523 11.894V0s25.455 14.271 30.494 17.84c5.039 3.569 5.247 8.956.652 14.568a8.026 8.026 0 00-.652-2.377C48.98 27.95 36.99 21.706 36.99 21.706l-17.468-9.812z" fill="url(#c)"/><path d="M34.666 42.234v11.892S9.21 39.854 4.176 36.286c-5.034-3.57-5.246-8.957-.651-14.568a8.05 8.05 0 00.652 2.379c1.037 2.08 13.025 8.325 13.025 8.325l17.464 9.812z" fill="url(#d)"/><path d="M53.86 44.498c-.01-1.31.208-2.611.644-3.847a9.227 9.227 0 011.935-3.167 8.968 8.968 0 013.039-2.157 9.999 9.999 0 014.095-.792c.927-.008 1.852.088 2.758.287.835.17 1.65.422 2.435.755l-1.11 4.282a13.734 13.734 0 00-1.648-.505 8.648 8.648 0 00-2.005-.215c-1.576 0-2.757.492-3.546 1.475-.763.983-1.145 2.278-1.145 3.884 0 1.705.357 3.025 1.073 3.96.741.935 2.019 1.402 3.833 1.402.695-.005 1.39-.065 2.075-.18a8.998 8.998 0 002.043-.575l.752 4.387c-.754.304-1.537.533-2.337.685a15.323 15.323 0 01-3.078.28 11.808 11.808 0 01-4.44-.754 8.755 8.755 0 01-3.081-2.123 8.596 8.596 0 01-1.755-3.13 14.06 14.06 0 01-.538-3.952zm35.513-.035a12.518 12.518 0 01-.645 4.102 9.082 9.082 0 01-1.87 3.165 8.426 8.426 0 01-2.928 2.026 9.583 9.583 0 01-3.796.701 9.758 9.758 0 01-3.798-.7 8.508 8.508 0 01-2.9-2.015 9.583 9.583 0 01-1.898-3.165 11.92 11.92 0 01-.68-4.102 11.614 11.614 0 01.68-4.064 9.606 9.606 0 011.933-3.13 8.914 8.914 0 012.938-2.015 9.552 9.552 0 013.725-.72 9.384 9.384 0 013.723.72 8.458 8.458 0 012.938 2.015 9.155 9.155 0 011.898 3.13c.466 1.3.696 2.672.68 4.052zm-5.443 0c0-1.654-.334-2.95-1.003-3.884a3.16 3.16 0 00-2.793-1.44 3.249 3.249 0 00-2.83 1.44c-.669.935-1.003 2.23-1.003 3.884 0 1.655.334 2.974 1.003 3.957.628.94 1.7 1.485 2.83 1.44a3.16 3.16 0 002.793-1.44c.669-.983 1.003-2.302 1.003-3.957zm14.124-.107c0 1.655.37 2.985 1.11 3.992.74 1.006 1.839 1.51 3.295 1.512.48 0 .919-.012 1.326-.037.406-.026.74-.096 1.002-.143v-9.748a4.532 4.532 0 00-1.325-.54 6.012 6.012 0 00-1.61-.215c-2.53 0-3.797 1.726-3.798 5.179zm12.07 8.994c-.468.142-1.027.287-1.649.43-.621.142-1.276.233-1.967.325-.692.09-1.363.168-2.078.215a19.27 19.27 0 01-2.006.11 11.8 11.8 0 01-4.155-.674 8.447 8.447 0 01-3.078-1.942 8.912 8.912 0 01-1.936-3.106 12.296 12.296 0 01-.645-4.1c-.019-1.4.175-2.795.575-4.137a9.045 9.045 0 011.636-3.166 7.115 7.115 0 012.616-1.978 8.912 8.912 0 013.58-.685 8.18 8.18 0 011.97.215 10.6 10.6 0 011.791.613v-8.561l5.336-.863.01 27.304zm10.332.61h-5.336V35.028h5.336V53.96zm.503-24.39a2.973 2.973 0 01-.968 2.338 3.23 3.23 0 01-2.22.827 3.36 3.36 0 01-2.256-.827c-.623-.575-.935-1.354-.935-2.337 0-.984.312-1.751.935-2.303a3.272 3.272 0 012.256-.864 3.158 3.158 0 012.22.864c.645.552.968 1.32.968 2.303zm3.615 14.928c-.01-1.31.21-2.611.645-3.847a9.227 9.227 0 011.936-3.167 8.968 8.968 0 013.038-2.157 9.999 9.999 0 014.083-.792c.927-.008 1.852.088 2.758.287.835.17 1.651.422 2.435.755l-1.105 4.282c-.534-.202-1.08-.37-1.636-.505a8.648 8.648 0 00-2.005-.215c-1.576 0-2.758.492-3.546 1.475-.764.983-1.146 2.278-1.148 3.884 0 1.705.359 3.025 1.076 3.96.741.935 2.019 1.402 3.833 1.402.695-.005 1.39-.065 2.075-.18a8.998 8.998 0 002.043-.575l.752 4.387a12.5 12.5 0 01-2.337.685 15.323 15.323 0 01-3.08.28 11.808 11.808 0 01-4.441-.754 8.755 8.755 0 01-3.08-2.123 8.596 8.596 0 01-1.756-3.13 14.06 14.06 0 01-.54-3.952z" fill="#2B2B2B"/></g></svg>