<?xml version="1.0" encoding="UTF-8"?>
<svg width="140px" height="55px" viewBox="0 0 140 55" version="1.1" xmlns="http://www.w3.org/2000/svg" xmlns:xlink="http://www.w3.org/1999/xlink">
    <!-- Generator: Sketch 63.1 (92452) - https://sketch.com -->
    <title>logo</title>
    <desc>Created with Sketch.</desc>
    <defs>
        <linearGradient x1="10.5398687%" y1="54.5678917%" x2="83.9663071%" y2="43.3068872%" id="linearGradient-1">
            <stop stop-color="#5C6AFF" offset="0%"></stop>
            <stop stop-color="#545EC4" offset="100%"></stop>
        </linearGradient>
        <linearGradient x1="87.267839%" y1="42.9157866%" x2="13.8586166%" y2="54.0749715%" id="linearGradient-2">
            <stop stop-color="#5C6AFF" offset="0%"></stop>
            <stop stop-color="#545EC4" offset="100%"></stop>
        </linearGradient>
        <linearGradient x1="95.4022734%" y1="85.2184849%" x2="2.08668551%" y2="7.6833069%" id="linearGradient-3">
            <stop stop-color="#4550BF" offset="0%"></stop>
            <stop stop-color="#505BC3" offset="100%"></stop>
        </linearGradient>
        <linearGradient x1="8.34213879%" y1="11.1026191%" x2="101.674923%" y2="88.4611816%" id="linearGradient-4">
            <stop stop-color="#4550BF" offset="0%"></stop>
            <stop stop-color="#505BC3" offset="100%"></stop>
        </linearGradient>
    </defs>
    <g id="Page-1" stroke="none" stroke-width="1" fill="none" fill-rule="evenodd">
        <g id="logo" fill-rule="nonzero">
            <g id="Group">
                <path d="M9.74156928,29.7459098 L30.7579299,16.9589316 L21.8764608,10.7161937 L8.52153589,18.4477462 L4.41268781,20.8247078 C2.92153589,21.6894825 0.860100167,26.4737896 0.860100167,26.4737896 L0.860100167,29.7459098 L9.74156928,29.7459098 Z" id="Path" fill="url(#linearGradient-1)"></path>
                <path d="M44.4470785,24.3819699 L23.4307179,37.1619366 L32.312187,43.4046745 L45.6671119,35.6754591 L49.7829716,33.3008347 C51.2764608,32.4360601 53.3355593,27.6517529 53.3355593,27.6517529 L53.3355593,24.3796327 L44.4470785,24.3819699 Z" id="Path-2" fill="url(#linearGradient-2)"></path>
                <path d="M19.5228715,11.8941569 L19.5228715,0 C19.5228715,0 44.9776294,14.2711185 50.0166945,17.8400668 C55.0557596,21.409015 55.263773,26.7963272 50.6687813,32.4080134 C50.5751014,31.586844 50.3551461,30.7850713 50.0166945,30.0310518 C48.9813022,27.948581 36.9913189,21.7058431 36.9913189,21.7058431 L19.5228715,11.8941569 Z" id="Path-3" fill="url(#linearGradient-3)"></path>
                <path d="M34.6657763,42.2337229 L34.6657763,54.1255426 C34.6657763,54.1255426 9.21101836,39.854424 4.17662771,36.2854758 C-0.857762938,32.7165275 -1.07045075,27.3292154 3.5245409,21.7175292 C3.61835259,22.5394244 3.83829749,23.3419473 4.17662771,24.096828 C5.21435726,26.1769616 17.2020033,32.4220367 17.2020033,32.4220367 L34.6657763,42.2337229 Z" id="Path-4" fill="url(#linearGradient-4)"></path>
            </g>
            <path d="M53.8590985,44.4984975 C53.849735,43.1884592 54.0680045,41.8867507 54.5041736,40.651419 C54.9280993,39.4755967 55.5864901,38.3981576 56.439399,37.4844741 C57.2899818,36.5605794 58.3251239,35.8256285 59.4777963,35.327212 C60.7718659,34.7781952 62.1671588,34.5082156 63.572621,34.5348915 C64.499807,34.5269023 65.4249445,34.6233361 66.3305509,34.8223706 C67.1657745,34.9910634 67.9817439,35.2439982 68.7659432,35.5772955 L67.6557596,39.8590985 C67.1176212,39.6564889 66.5672892,39.4878765 66.0080134,39.3542571 C65.3502406,39.2046126 64.6772172,39.1324469 64.0026711,39.1392321 C62.427379,39.1392321 61.2455203,39.6308292 60.4570952,40.6140234 C59.6936004,41.5972176 59.3118531,42.8920423 59.3118531,44.4984975 C59.3118531,46.2031163 59.6694491,47.5228715 60.3846411,48.4577629 C61.1263216,49.3926544 62.4040067,49.8601002 64.2176962,49.8601002 C64.9132014,49.8554108 65.6072237,49.795231 66.2931553,49.6801336 C66.9943626,49.5697239 67.6800423,49.3767294 68.3358932,49.1051753 L69.0884808,53.4921536 C68.3336077,53.7961152 67.5508011,54.0254775 66.7512521,54.1769616 C65.7372846,54.3739614 64.7059959,54.4679285 63.6731219,54.457429 C62.1581481,54.49308 60.6504743,54.2367755 59.2323873,53.7025042 C58.0646703,53.2252822 57.0138671,52.5013601 56.1519199,51.5803005 C55.3532071,50.6722007 54.7550931,49.6057898 54.3966611,48.4507513 C54.0305774,47.165571 53.8495691,45.8347665 53.8590985,44.4984975 Z" id="Path-5" fill="#2B2B2B"></path>
            <path d="M89.3732888,44.4634391 C89.3881055,45.8570945 89.1700818,47.2434405 88.7282137,48.5652755 C88.3271524,49.7365557 87.6908632,50.8134751 86.8584307,51.7298831 C86.0377754,52.6062832 85.0392931,53.2971724 83.9298831,53.7562604 C82.7253192,54.2450164 81.4339056,54.4835781 80.1342237,54.457429 C78.8341535,54.4790833 77.5428661,54.2406917 76.336227,53.7562604 C75.2391156,53.2949697 74.2509958,52.6086206 73.4357262,51.7415693 C72.6040694,50.8196139 71.9595112,49.7448211 71.5378965,48.5769616 C71.0726301,47.2600871 70.8424174,45.8716909 70.8577629,44.4751252 C70.8403713,43.0906 71.0707079,41.7141212 71.5378965,40.4106845 C71.9745848,39.2527321 72.6309113,38.1900704 73.4707846,37.2811352 C74.3045551,36.4187426 75.3038035,35.7334983 76.4086811,35.2664441 C77.5898954,34.7797709 78.8567326,34.5349868 80.1342237,34.5465776 C81.4113492,34.5306555 82.6782824,34.7756118 83.857429,35.2664441 C84.9686445,35.7218353 85.9701513,36.4086283 86.7953255,37.2811352 C87.6321385,38.1859398 88.2776462,39.2503916 88.6931553,40.4106845 C89.158971,41.7104335 89.389287,43.082832 89.3732888,44.4634391 Z M83.9298831,44.4634391 C83.9298831,42.8086811 83.5956594,41.5138564 82.927212,40.5789649 C82.3177197,39.63737 81.2547602,39.0894344 80.1342237,39.1392321 C79.0045125,39.0939372 77.9324997,39.6392386 77.3038397,40.5789649 C76.6353923,41.5138564 76.3011686,42.8086811 76.3011686,44.4634391 C76.3011686,46.118197 76.6353923,47.4371731 77.3038397,48.4203673 C77.9324997,49.3600937 79.0045125,49.905395 80.1342237,49.8601002 C81.2547602,49.9098978 82.3177197,49.3619622 82.927212,48.4203673 C83.5956594,47.4371731 83.9298831,46.118197 83.9298831,44.4634391 L83.9298831,44.4634391 Z" id="Shape" fill="#2B2B2B"></path>
            <path d="M98.0537563,44.3559265 C98.0537563,46.0106845 98.4238175,47.3413467 99.1639399,48.3479132 C99.9040623,49.3544797 101.00256,49.858542 102.459432,49.8601002 C102.938564,49.8601002 103.377963,49.848414 103.784641,49.8227045 C104.191319,49.796995 104.525543,49.7268781 104.787312,49.6801336 L104.787312,39.9315526 C104.376955,39.6825412 103.929644,39.5003033 103.462104,39.3916528 C102.937523,39.2474375 102.395793,39.1751021 101.851753,39.1766041 C99.3213133,39.1766041 98.0553144,40.9030607 98.0537563,44.3559265 Z M110.123205,53.3495826 C109.65576,53.4921536 109.097162,53.6370618 108.475459,53.7796327 C107.853756,53.9222037 107.199332,54.0133556 106.507513,54.1045075 C105.815693,54.1956594 105.144908,54.272788 104.429716,54.3195326 C103.763633,54.3909804 103.094276,54.4276468 102.424374,54.4293823 C101.010028,54.4558959 99.6024373,54.2278947 98.2687813,53.7562604 C97.1137883,53.340226 96.0633623,52.6774287 95.1906511,51.8140234 C94.337638,50.9236584 93.6786704,49.8659677 93.2554257,48.7078464 C92.8096921,47.3877634 92.5915611,46.0015251 92.6103506,44.6083472 C92.5910656,43.2082018 92.7849371,41.8132727 93.1853088,40.4714524 C93.5151934,39.3177317 94.0713446,38.2411819 94.8213689,37.3045075 C95.5273236,36.4507793 96.4228889,35.7737031 97.4367279,35.327212 C98.5703346,34.8546543 99.7893808,34.6215078 101.017362,34.642404 C101.680411,34.6339576 102.342027,34.7061624 102.987646,34.857429 C103.601481,35.0077658 104.20064,35.2127001 104.777963,35.469783 L104.777963,26.9085142 L110.113856,26.0460768 L110.123205,53.3495826 Z" id="Shape-2" fill="#2B2B2B"></path>
            <path d="M120.456093,53.9595993 L115.1202,53.9595993 L115.1202,35.0280467 L120.456093,35.0280467 L120.456093,53.9595993 Z M120.958598,29.5706177 C121.000125,30.4549004 120.645414,31.3116899 119.990985,31.9078464 C119.382397,32.4549542 118.588828,32.7506632 117.770618,32.7352254 C116.94255,32.7467241 116.13939,32.4520933 115.515192,31.9078464 C114.891931,31.3328881 114.580301,30.5538119 114.580301,29.5706177 C114.580301,28.5874235 114.891931,27.8200334 115.515192,27.2684474 C116.129193,26.7030847 116.936032,26.3937267 117.770618,26.4036728 C118.595276,26.3908913 119.392204,26.701274 119.990985,27.2684474 C120.63606,27.8200334 120.958598,28.5874235 120.958598,29.5706177 L120.958598,29.5706177 Z" id="Shape-3" fill="#2B2B2B"></path>
            <path d="M124.57429,44.4984975 C124.564927,43.1884592 124.783196,41.8867507 125.219366,40.651419 C125.643291,39.4755967 126.301682,38.3981576 127.154591,37.4844741 C128.005174,36.5605794 129.040316,35.8256285 130.192988,35.327212 C131.483447,34.7798074 132.874588,34.5098608 134.276127,34.5348915 C135.203313,34.5269023 136.12845,34.6233361 137.034057,34.8223706 C137.86928,34.9910634 138.68525,35.2439982 139.469449,35.5772955 L138.36394,39.8590985 C137.829617,39.6569538 137.283202,39.4883457 136.72788,39.3542571 C136.070107,39.2046126 135.397084,39.1324469 134.722538,39.1392321 C133.147245,39.1392321 131.965387,39.6308292 131.176962,40.6140234 C130.413467,41.5972176 130.03094,42.8920423 130.029382,44.4984975 C130.029382,46.2031163 130.387757,47.5228715 131.104508,48.4577629 C131.846188,49.3926544 133.123873,49.8601002 134.937563,49.8601002 C135.633068,49.8554108 136.32709,49.795231 137.013022,49.6801336 C137.714229,49.5697239 138.399909,49.3767294 139.05576,49.1051753 L139.808347,53.4921536 C139.053474,53.7961152 138.270668,54.0254775 137.471119,54.1769616 C136.456385,54.3741184 135.424305,54.4680862 134.390651,54.457429 C132.875677,54.49308 131.368004,54.2367755 129.949917,53.7025042 C128.7822,53.2252822 127.731396,52.5013601 126.869449,51.5803005 C126.070736,50.6722007 125.472622,49.6057898 125.11419,48.4507513 C124.747317,47.1656851 124.565521,45.8348786 124.57429,44.4984975 L124.57429,44.4984975 Z" id="Path-6" fill="#2B2B2B"></path>
        </g>
    </g>
</svg>